HIERARCHY
ROOT hip
{
	OFFSET 0.000000 0.000000 0.000000
	CHANNELS 6 Xposition Yposition Zposition Xrotation Zrotation Yrotation 
	JOINT abdomen
	{
		OFFSET 0.000000 3.422050 0.000000
		CHANNELS 3 Xrotation Zrotation Yrotation 
		JOINT chest
		{
			OFFSET 0.000000 8.486693 -0.684411
			CHANNELS 3 Xrotation Zrotation Yrotation 
			JOINT neck
			{
				OFFSET 0.000000 10.266162 -0.273764
				CHANNELS 3 Xrotation Zrotation Yrotation 
				JOINT head
				{
					OFFSET 0.000000 3.148285 0.000000
					CHANNELS 3 Xrotation Zrotation Yrotation 
					End Site
					{
						OFFSET 0.000000 3.148289 0.000000
					}
				}
			}
			JOINT lCollar
			{
				OFFSET 3.422053 6.707223 -0.821293
				CHANNELS 3 Yrotation Zrotation Xrotation 
				JOINT lShldr
				{
					OFFSET 3.285171 0.000000 0.000000
					CHANNELS 3 Zrotation Yrotation Xrotation 
					JOINT lForeArm
					{
						OFFSET 10.129278 0.000000 0.000000
						CHANNELS 3 Yrotation Zrotation Xrotation 
						JOINT lHand
						{
							OFFSET 8.486692 0.000000 0.000000
							CHANNELS 3 Zrotation Yrotation Xrotation 
							End Site
							{
								OFFSET 4.106464 0.000000 0.000000
							}
						}
					}
				}
			}
			JOINT rCollar
			{
				OFFSET -3.558935 6.707223 -0.821293
				CHANNELS 3 Yrotation Zrotation Xrotation 
				JOINT rShldr
				{
					OFFSET -3.148289 0.000000 0.000000
					CHANNELS 3 Zrotation Yrotation Xrotation 
					JOINT rForeArm
					{
						OFFSET -10.266159 0.000000 0.000000
						CHANNELS 3 Yrotation Zrotation Xrotation 
						JOINT rHand
						{
							OFFSET -8.349810 0.000000 0.000000
							CHANNELS 3 Zrotation Yrotation Xrotation 
							End Site
							{
								OFFSET -4.106464 0.000000 0.000000
							}
						}
					}
				}
			}
		}
	}
	JOINT lThigh
	{
		OFFSET 5.338403 -1.642589 1.368821
		CHANNELS 3 Xrotation Zrotation Yrotation 
		JOINT lShin
		{
			OFFSET -2.053232 -20.121670 0.000000
			CHANNELS 3 Xrotation Zrotation Yrotation 
			JOINT lFoot
			{
				OFFSET 0.000000 -19.300380 -1.231939
				CHANNELS 3 Xrotation Yrotation Zrotation 
				End Site
				{
					OFFSET 0.000000 -2.463878 4.653993
				}
			}
		}
	}
	JOINT rThigh
	{
		OFFSET -5.338403 -1.642589 1.368821
		CHANNELS 3 Xrotation Zrotation Yrotation 
		JOINT rShin
		{
			OFFSET 2.053232 -20.121670 0.000000
			CHANNELS 3 Xrotation Zrotation Yrotation 
			JOINT rFoot
			{
				OFFSET 0.000000 -19.300380 -1.231939
				CHANNELS 3 Xrotation Yrotation Zrotation 
				End Site
				{
					OFFSET 0.000000 -2.463878 4.653993
				}
			}
		}
	}
}
MOTION
Frames: 11
Frame Time: 0.033264
0.000000 43.528500 0.000000 0.000000 0.000000 0.000000 0.000000 0.000000 0.000000 0.000000 0.000000 0.000000 0.000000 0.000000 0.000000 0.000000 0.000000 0.000000 0.000000 0.000000 0.000000 0.000000 0.000000 0.000000 0.000000 0.000000 0.000000 0.000000 0.000000 0.000000 0.000000 0.000000 0.000000 0.000000 0.000000 0.000000 0.000000 0.000000 0.000000 0.000000 0.000000 0.000000 0.000000 0.000000 0.000000 0.000000 0.000000 0.000000 0.000000 0.000000 0.000000 0.000000 0.000000 0.000000 0.000000 0.000000 0.000000 0.000000 0.000000 0.000000 
-0.309380 40.185352 1.054315 14.998176 0.000000 0.000000 7.514987 -0.928989 -0.343148 -25.348200 -2.188401 -1.083486 -0.361948 0.000000 0.000000 -0.333971 0.000000 0.000000 -1.429403 1.832680 16.252787 -52.619404 -14.314293 -1.128901 -81.344223 -33.701664 -12.136244 -8.416790 9.760513 3.322751 1.298254 -2.341911 15.494684 52.608250 14.444872 -1.179935 80.373840 33.549873 -11.640958 10.167751 -9.391075 3.604087 -40.926781 10.721684 8.307760 50.639141 3.048595 -0.281463 -21.539877 7.983079 -16.492117 -40.964973 -9.803830 -8.921554 50.880257 -3.296325 0.200112 -21.981623 -7.927860 15.612966 
-0.309380 40.185352 1.167455 13.509847 0.000000 0.000000 7.514987 -0.928989 -0.343148 -22.593117 -2.188346 -1.083570 -0.718646 0.000000 0.000000 -0.663489 0.000000 0.000000 -1.780908 2.034333 15.111506 -52.619404 -14.314293 -1.128901 -80.667389 -33.600677 -11.774733 -8.418457 9.460647 2.952152 1.652191 -2.525515 14.386740 52.608250 14.444872 -1.179935 79.723312 33.444721 -11.295105 10.113034 -9.092608 3.231381 -38.976158 11.407419 9.179838 50.377293 2.945945 -0.295461 -21.715349 6.906086 -16.510824 -39.044769 -10.382790 -9.602647 50.621342 -3.203884 0.214591 -22.148104 -7.057186 15.638500 
-0.309380 40.185352 1.280595 12.017440 0.000000 0.000000 7.514987 -0.928989 -0.343148 -19.811138 -2.188287 -1.083652 -1.075665 0.000000 0.000000 -0.993256 0.000000 0.000000 -2.129005 2.243329 13.969241 -52.619404 -14.314293 -1.128902 -79.991875 -33.496120 -11.414965 -8.418158 9.160694 2.581779 2.003169 -2.716257 13.277853 52.608250 14.444872 -1.179935 79.074097 33.336269 -10.950999 10.056384 -8.794414 2.858584 -37.000908 12.066580 10.081758 50.115467 2.843221 -0.308989 -21.891058 5.827576 -16.532841 -37.104336 -10.941638 -10.307979 50.362461 -3.111369 0.228652 -22.314850 -6.185750 15.666566 
-0.309380 40.185352 1.393735 10.521442 0.000000 0.000000 7.514987 -0.928989 -0.343148 -17.005182 -2.188222 -1.083731 -1.432999 0.000000 0.000000 -1.323269 0.000000 0.000000 -2.473467 2.459569 12.826256 -52.619404 -14.314293 -1.128901 -79.317757 -33.388000 -11.057014 -8.415893 8.860674 2.211621 2.350972 -2.914053 12.168277 52.608250 14.444872 -1.179934 78.426292 33.224522 -10.608707 9.997798 -8.496511 2.485689 -35.002155 12.697311 11.012521 49.853668 2.740428 -0.322047 -22.067116 4.747757 -16.558176 -35.144691 -11.478951 -11.036811 50.103588 -3.018784 0.242294 -22.481909 -5.313663 15.697162 
-0.309380 40.185352 1.506876 9.022357 0.000000 0.000000 7.514988 -0.928989 -0.343148 -14.178349 -2.188154 -1.083807 -1.790643 0.000000 0.000000 -1.653520 0.000000 0.000000 -2.814068 2.682940 11.682817 -52.619404 -14.314292 -1.128901 -78.645111 -33.276337 -10.700960 -8.411671 8.560614 1.841671 2.695388 -3.118809 11.058260 52.608246 14.444870 -1.179934 77.779953 33.109535 -10.268292 9.937290 -8.198931 2.112690 -32.981216 13.297832 11.970957 49.591888 2.637570 -0.334634 -22.243593 3.666831 -16.586834 -33.166927 -11.993339 -11.788274 49.844746 -2.926132 0.255516 -22.649336 -4.441035 15.730289 
-0.309380 40.185352 1.620016 7.520689 0.000000 0.000000 7.514987 -0.928989 -0.343148 -11.333876 -2.188082 -1.083881 -2.148587 0.000000 0.000000 -1.984006 0.000000 0.000000 -3.150590 2.913324 10.539186 -52.619404 -14.314291 -1.128900 -77.974014 -33.161175 -10.346864 -8.405493 8.260533 1.471920 3.036208 -3.330422 9.948060 52.608246 14.444870 -1.179934 77.135147 32.991310 -9.929820 9.874858 -7.901690 1.739580 -30.939617 13.866445 12.955717 49.330143 2.534648 -0.346750 -22.420593 2.585006 -16.618820 -31.172338 -12.483482 -12.561395 49.585941 -2.833417 0.268319 -22.817200 -3.567982 15.765965 
-0.309380 40.185352 1.733156 6.016948 0.000000 0.000000 7.514987 -0.928989 -0.343148 -8.475135 -2.188005 -1.083951 -2.506828 0.000000 0.000000 -2.314720 0.000000 0.000000 -3.482817 3.150589 9.395632 -52.619404 -14.314293 -1.128901 -77.304520 -33.042519 -9.994802 -8.397365 7.960457 1.102363 3.373226 -3.548779 8.837913 52.608246 14.444870 -1.179934 76.491920 32.869881 -9.593345 9.810510 -7.604817 1.366352 -28.878979 14.401538 13.965261 49.068424 2.431668 -0.358396 -22.598206 1.502490 -16.654160 -29.162233 -12.948107 -13.355046 49.327145 -2.740639 0.280703 -22.985542 -2.694614 15.804187 
-0.309380 40.185352 1.846296 4.511648 0.000000 0.000000 7.514987 -0.928989 -0.343148 -5.605597 -2.187925 -1.084018 -2.865357 0.000000 0.000000 -2.645658 0.000000 0.000000 -3.810539 3.394597 8.252407 -52.619404 -14.314293 -1.128901 -76.636719 -32.920410 -9.644836 -8.387285 7.660409 0.732989 3.706243 -3.773762 7.728069 52.608250 14.444872 -1.179935 75.850372 32.745277 -9.258934 9.744249 -7.308332 0.993001 -26.801151 14.901628 14.997890 48.806740 2.328632 -0.369569 -22.776533 0.419493 -16.692865 -27.138119 -13.386037 -14.167999 49.068394 -2.647804 0.292666 -23.154428 -1.821045 15.844969 
-0.309380 40.185352 1.959436 3.005310 0.000000 0.000000 7.514987 -0.928989 -0.343148 -2.728817 -2.187841 -1.084080 -3.224168 0.000000 0.000000 -2.976815 0.000000 0.000000 -4.133553 3.645196 7.109765 -52.619404 -14.314294 -1.128902 -75.970673 -32.794880 -9.297046 -8.375265 7.360411 0.363791 4.035062 -4.005238 6.618766 52.608250 14.444874 -1.179935 75.210518 32.617519 -8.926637 9.676082 -7.012261 0.619520 -24.708130 15.365348 16.051725 48.545086 2.225543 -0.380272 -22.955667 -0.663776 -16.734962 -25.101564 -13.796170 -14.998898 48.809681 -2.554914 0.304208 -23.323914 -0.947389 15.888316 
-0.309380 40.185352 2.072576 1.498448 0.000000 0.000000 7.514987 -0.928989 -0.343148 0.151600 -2.187755 -1.084139 -3.583254 0.000000 0.000000 -3.308184 0.000000 0.000000 -4.451661 3.902234 5.967961 -52.619408 -14.314294 -1.128902 -75.306511 -32.665977 -8.951498 -8.361301 7.060484 -0.005239 4.359493 -4.243072 5.510242 52.608250 14.444874 -1.179935 74.572456 32.486645 -8.596518 9.606015 -6.716627 0.245903 -22.602068 15.791487 17.124737 48.283470 2.122406 -0.390502 -23.135700 -1.747109 -16.780466 -23.054277 -14.177513 -15.846283 48.550999 -2.461972 0.315330 -23.494061 -0.073760 15.934256 
